<?xml version="1.0" standalone="no"?>
<!DOCTYPE svg PUBLIC "-//W3C//DTD SVG 1.1//EN" "http://www.w3.org/Graphics/SVG/1.1/DTD/svg11.dtd" >
<!--
2013-9-30: Created.
-->
<svg>
<metadata>
Created by iconfont
</metadata>
<defs>

<font id="iconfont" horiz-adv-x="1024" >
  <font-face
    font-family="iconfont"
    font-weight="500"
    font-stretch="normal"
    units-per-em="1024"
    ascent="896"
    descent="-128"
  />
    <missing-glyph />
    
    <glyph glyph-name="markdown" unicode="&#61931;" d="M1187.7-9.84H92.3C41.4-9.84 0 31.56 0 82.46V685.54c0 50.9 41.4 92.3 92.3 92.3h1095.38c50.9 0 92.3-41.4 92.3-92.3v-603.08c0.02-50.9-41.38-92.3-92.28-92.3z m-880 184.6v240l123.08-153.84 123.08 153.84v-240h123.08V593.24h-123.08l-123.08-153.84-123.08 153.84H184.62v-418.46h123.08zM1132.3 384h-123.08V593.24h-123.08V384h-123.08l184.62-215.38L1132.3 384z"  horiz-adv-x="1280" />

    
    <glyph glyph-name="read-line" unicode="&#59181;" d="M891.072 177.216c0-19.296-15.168-34.432-34.464-34.432H649.856a174.08 174.08 0 0 1-103.392-34.464V659.6800000000001a103.232 103.232 0 0 0 103.36 103.392h206.784c19.296 0 34.464-15.168 34.464-34.464v-551.36zM477.536 108.32000000000005a174.08 174.08 0 0 1-103.36 34.464H167.36a34.112 34.112 0 0 0-34.464 34.432V728.64c0 19.296 15.168 34.464 34.464 34.464h206.752a103.232 103.232 0 0 0 103.392-103.36v-551.392zM856.64 832H649.888C593.344 832 543.68 804.4159999999999 512 761.696 480.32 804.4159999999999 430.656 832 374.144 832H167.392A103.232 103.232 0 0 1 64 728.64v-551.424a103.232 103.232 0 0 1 103.36-103.36h206.784a103.232 103.232 0 0 0 103.392-103.392C477.536-48.831999999999994 492.704-64 512-64s34.464 15.168 34.464 34.464a103.232 103.232 0 0 0 103.36 103.36h206.784A103.232 103.232 0 0 1 960 177.24800000000005V728.64A103.232 103.232 0 0 1 856.64 832z"  horiz-adv-x="1024" />

    
    <glyph glyph-name="wrods-line" unicode="&#59090;" d="M195.828 429.16h212.111l48.61-128.151h79.541l-190.019 486.092h-88.378l-190.019-490.509h79.541l48.61 132.569zM284.207 676.63c4.421 13.255 8.839 26.511 13.259 44.187h4.421c0-4.417 4.417-13.257 13.255-35.349 0-4.421 4.421-8.837 4.421-8.837 0-4.421 26.511-66.287 70.704-190.019h-176.762c48.608 123.732 70.704 185.598 70.704 190.019v0zM284.207 676.63zM544.929 601.504h406.549v-61.866h-406.549v61.866zM544.929 601.504zM67.676 234.72500000000002h883.802v-61.866h-883.802v61.866zM67.676 234.72500000000002zM544.929 415.909h406.549v-61.866h-406.549v61.866zM544.929 415.909zM67.676 53.547000000000025h883.802v-61.866h-883.802v61.866zM67.676 53.547000000000025zM544.929 782.6800000000001h406.549v-61.865h-406.549v61.865zM544.929 782.6800000000001z"  horiz-adv-x="1024" />

    
    <glyph glyph-name="send-line" unicode="&#58880;" d="M51.2 384l278.756-136.533 22.755 45.51L176.356 384l671.288 364.089L398.222 224.71000000000004V-71.11000000000001h56.89V201.95600000000002l460.8 534.755L773.688 31.289999999999964 529.067 179.20000000000005l-34.134-45.511L819.2-59.73299999999995 1006.933 890.31z"  horiz-adv-x="1024" />

    
    <glyph glyph-name="comment-line" unicode="&#58952;" d="M816 88h-144c-4.8 0-8-1.6-11.2-4.8l-80-80c-36.8-36.8-97.6-36.8-136 0l-80 80c-3.2 3.2-6.4 4.8-11.2 4.8h-144c-70.4 0-128 57.6-128 128v448c0 70.4 57.6 128 128 128h608c70.4 0 128-57.6 128-128v-448c-1.6-70.4-59.2-128-129.6-128z m0 64c35.2 0 64 28.8 64 64v448c0 35.2-28.8 64-64 64H208c-35.2 0-64-28.8-64-64v-448c0-35.2 28.8-64 64-64h144c20.8 0 41.6-8 56-24l80-80c12.8-12.8 32-12.8 44.8 0l80 80c14.4 14.4 35.2 24 56 24H816z m-496 336c27.2 0 48-20.8 48-48v-32c0-27.2-20.8-48-48-48s-48 20.8-48 48v32c0 27.2 20.8 48 48 48z m192 0c27.2 0 48-20.8 48-48v-32c0-27.2-20.8-48-48-48s-48 20.8-48 48v32c0 27.2 20.8 48 48 48z m192 0c27.2 0 48-20.8 48-48v-32c0-27.2-20.8-48-48-48s-48 20.8-48 48v32c0 27.2 20.8 48 48 48z"  horiz-adv-x="1024" />

    
    <glyph glyph-name="icon-details" unicode="&#58931;" d="M910.2 554c-22 51.9-53.4 98.5-93.4 138.6-40 40-86.7 71.5-138.6 93.4-53.8 22.7-110.9 34.3-169.7 34.3S392.6 808.8 338.8 786c-51.9-22-98.5-53.4-138.6-93.4-40-40-71.5-86.7-93.4-138.6C84 500.2 72.5 443.1 72.5 384.2c0-58.8 11.5-115.9 34.3-169.7 22-51.9 53.4-98.5 93.4-138.6 40-40 86.7-71.5 138.6-93.4 53.8-22.7 110.9-34.3 169.7-34.3s115.9 11.5 169.7 34.3c51.9 22 98.5 53.4 138.6 93.4 40 40 71.5 86.7 93.4 138.6 22.7 53.8 34.3 110.9 34.3 169.7 0 58.9-11.5 116-34.3 169.8zM765.9 127c-68.8-68.8-160.2-106.7-257.4-106.7s-188.6 37.9-257.4 106.6C182.4 195.70000000000005 144.5 287 144.5 384.2s37.9 188.6 106.6 257.4 160.2 106.6 257.4 106.6 188.6-37.9 257.4-106.6c68.8-68.8 106.6-160.2 106.6-257.4S834.6 195.70000000000005 765.9 127zM508.5 465.2c-19.9 0-36-16.1-36-36V224c0-19.9 16.1-36 36-36s36 16.1 36 36V429.2c0 19.9-16.1 36-36 36zM508.5 580.5c-19.9 0-36-16.1-36-36s16.1-36 36-36 36 16.1 36 36-16.1 36-36 36z"  horiz-adv-x="1024" />

    
    <glyph glyph-name="address" unicode="&#58891;" d="M512.46 702.427c-90.154 0-163.493-72.018-163.493-160.512 0-88.476 73.339-160.416 163.493-160.416 90.149 0 163.449 71.94 163.449 160.416C675.909 630.414 602.609 702.427 512.46 702.427M512.46 452.571c-50.116 0-90.888 40.09-90.888 89.378 0 49.276 40.771 89.384 90.888 89.384 50.082 0 90.849-40.107 90.849-89.384C603.309 492.663 562.542 452.571 512.46 452.571M895.11 518.094c0 207.235-171.655 375.823-382.65 375.823-210.958 0-382.542-168.588-382.542-375.823 0-162.531 235.576-490.029 336.917-623.266 10.667-14.059 27.74-22.416 45.627-22.416 17.846 0 34.955 8.354 45.662 22.416C659.427 28.063999999999965 895.11 355.52 895.11 518.094M518.492-48.28800000000001l-6.032-8.021-6.037 8.021C315.12 205.90700000000004 196.191 422.95 196.191 518.094c0 171.303 141.85 310.673 316.269 310.673 174.378 0 316.234-139.37 316.234-310.673C828.729 422.914 709.873 205.90700000000004 518.492-48.28800000000001"  horiz-adv-x="1024" />

    
    <glyph glyph-name="time" unicode="&#58993;" d="M511.6 831.8c-246.2 0-448-200.4-448-448 0-246.2 200.4-448 448-448s448 200.4 448 448c0 246.2-200.4 448-448 448z m0-829.8c-209.9 0-381.8 171.9-381.8 381.8s171.9 380.4 381.8 380.4S892 593.7 892 383.79999999999995c0-210-170.5-381.8-380.4-381.8z m0 0M728.3 316.20000000000005l-185.5 62.1V643.6c0 19-16.3 35.4-35.4 35.4-19 0-35.4-16.3-35.4-35.4v-289.8c-1.4-13.6 6.8-25.8 20.4-32.6l205.9-68.9c5.4-1.4 9.5-2.7 15-2.7 4.1 0 8.2 0 13.6 1.4 8.2 2.7 15 9.5 19 17.7 4.1 9.5 4.1 19 1.4 27.2-3.1 9.4-9.5 16.2-19 20.3z m0 0"  horiz-adv-x="1024" />

    
    <glyph glyph-name="page" unicode="&#58922;" d="M809.021787-20.341025l-590.652338 0c-48.40443 0-87.799672 39.395242-87.799672 87.799672l0 654.506644c0 48.40443 39.395242 87.799672 87.799672 87.799672l590.652338 0c48.40443 0 87.799672-39.395242 87.799672-87.799672l0-654.506644C896.821459 19.054217 857.426217-20.341025 809.021787-20.341025zM218.36945 761.874233c-22.01234 0-39.908942-17.896602-39.908942-39.908942l0-654.506644c0-22.01234 17.896602-39.908942 39.908942-39.908942l590.652338 0c22.01234 0 39.908942 17.896602 39.908942 39.908942l0 654.506644c0 22.01234-17.896602 39.908942-39.908942 39.908942L218.36945 761.874233zM322.132698 187.185472l383.125841 0 0-31.927153-383.125841 0 0 31.927153ZM322.132698 506.457006l383.125841 0 0-31.927153-383.125841 0 0 31.927153ZM322.132698 650.129196l383.125841 0 0-31.927153-383.125841 0 0 31.927153ZM322.132698 346.821239l383.125841 0 0-31.927153-383.125841 0 0 31.927153Z"  horiz-adv-x="1024" />

    
    <glyph glyph-name="ip" unicode="&#59005;" d="M512.77824-97.75104L352.256 144.4864A375.808 375.808 0 0 0 136.56064 484.33152C136.54016 691.36384 304.96768 859.79136 512 859.79136c207.01184 0 375.43936-168.42752 375.43936-375.45984 0-151.08096-88.63744-285.32736-226.69312-344.82176l-147.968-237.2608zM512 798.35136c-173.1584 0-314.01984-140.86144-314.01984-314.01984a314.34752 314.34752 0 0 1 187.41248-287.45728l8.23296-3.62496 117.59616-177.41824 107.9296 173.056 9.33888 3.72736a312.70912 312.70912 0 0 1 197.5296 291.71712C825.99936 657.48992 685.13792 798.35136 512 798.35136zM380.55936 601.25184h43.95008V333.6192h-43.95008V601.25184zM434.74944 323.3792h-64.43008V611.49184h64.43008V323.3792z m-43.95008 20.48h23.47008V591.01184h-23.47008V343.8592zM604.22144 437.0432h-72.41728v-103.424h-45.21984V602.54208h120.23808c58.61376-2.58048 90.05056-29.73696 94.37184-81.44896-0.88064-55.17312-33.21856-83.18976-96.9728-84.04992z m-3.8912 125.41952h-68.54656v-86.60992h68.54656c37.04832 0 55.6032 15.07328 55.6032 45.24032-1.7408 26.70592-20.2752 40.50944-55.6032 41.3696zM542.04416 323.3792h-65.69984V612.78208h130.47808c80.54784-3.54304 101.2736-51.34336 104.57088-90.84928-0.6144-43.29472-19.72224-93.96224-107.02848-95.1296h-62.32064v-103.424z m-45.24032 20.48h24.73984v103.424h82.65728c58.34752 0.77824 85.93408 24.28928 86.71232 73.95328-3.87072 45.79328-30.76096 68.68992-84.60288 71.0656h-109.52704V343.8592z m103.5264 121.73312h-78.78656v107.08992h78.78656c51.77344-1.26976 64.34816-28.40576 65.82272-50.93376 0.02048-21.38112-8.54016-56.15616-65.82272-56.15616z m-58.28608 20.48h58.30656c40.20224 0 45.3632 18.71872 45.3632 35.00032-0.83968 12.53376-6.49216 30.18752-45.60896 31.1296h-58.0608v-66.12992z"  horiz-adv-x="1024" />

    
    <glyph glyph-name="search" unicode="&#58970;" d="M416 704C537.6 704 640 601.6 640 480S537.6 256 416 256 192 358.4 192 480 294.4 704 416 704M416 768C256 768 128 640 128 480S256 192 416 192 704 320 704 480 576 768 416 768L416 768zM832 32c-6.4 0-19.2 0-25.6 6.4l-192 192c-12.8 12.8-12.8 32 0 44.8s32 12.8 44.8 0l192-192c12.8-12.8 12.8-32 0-44.8C851.2 32 838.4 32 832 32z"  horiz-adv-x="1024" />

    
    <glyph glyph-name="reading" unicode="&#58978;" d="M924.16 839.04A581.44 581.44 0 0 1 512 676.48 581.44 581.44 0 0 1 99.84 839.04 65.92 65.92 0 0 1 32 774.72v-640a66.88 66.88 0 0 1 69.44-64 579.84 579.84 0 0 0 370.56-128 64 64 0 0 1 79.68 0 579.84 579.84 0 0 0 370.56 128 66.88 66.88 0 0 1 69.44 64v640a65.92 65.92 0 0 1-67.52 64.32zM419.52 209.6a40 40 0 0 0-54.4-15.68 465.6 465.6 0 0 1-177.6 56 40 40 0 0 0 8.96 79.36 551.68 551.68 0 0 0 207.68-64 40 40 0 0 0 15.36-55.68z m0 160a40 40 0 0 0-54.4-15.68 465.6 465.6 0 0 1-177.6 56 40 40 0 0 0 8.96 79.36 551.68 551.68 0 0 0 207.68-64 40 40 0 0 0 15.36-55.68z m0 160a40 40 0 0 0-54.4-15.68 465.6 465.6 0 0 1-177.6 56 40 40 0 0 0 8.96 79.68 551.68 551.68 0 0 0 207.68-64 40 40 0 0 0 15.36-56z m416-279.68a465.6 465.6 0 0 1-177.6-56 40 40 0 0 0-38.72 70.08 551.68 551.68 0 0 0 207.68 64 40 40 0 0 0 8.96-79.36z m0 160a465.6 465.6 0 0 1-177.6-56 40 40 0 0 0-38.72 70.08 551.68 551.68 0 0 0 207.68 64 40 40 0 0 0 8.96-79.36z m0 160a465.6 465.6 0 0 1-177.6-56 40 40 0 0 0-38.72 70.08 551.68 551.68 0 0 0 207.68 64 40 40 0 0 0 8.96-79.36z"  horiz-adv-x="1024" />

    
    <glyph glyph-name="tag-line" unicode="&#58925;" d="M979.067648 480.487541c0 0 0.040932 300.381301 0.040932 303.553551 0 39.417755-32.060183 71.477938-71.477938 71.477938-3.172249 0-303.543318-0.040932-303.533085-0.040932-2.128477 0-4.256954 0.010233-6.364965 0.020466-2.241041 0.010233-4.461615 0.020466-6.671956 0.020466-19.893072 0-49.947576 0-69.615521-19.657712l-463.772602-463.782835c-11.164271-11.143805-17.304108-25.971511-17.304108-41.750893 0-15.769149 6.139837-30.596855 17.293875-41.761126l354.503966-354.493733c11.143805-11.154038 25.971511-17.304108 41.750893-17.304108 15.779382 0 30.607088 6.139837 41.761126 17.293875l463.762369 463.782835c19.882839 19.862373 19.770276 48.433082 19.647479 76.052117C979.077881 476.077092 979.067648 478.2772 979.067648 480.487541zM938.155866 473.723487c0.092098-20.107967 0.163729-39.110763-7.65433-46.918589l-463.772602-463.793068c-3.417843-3.428076-7.971555-5.310959-12.811794-5.310959-4.830005 0-9.373485 1.882883-12.791327 5.310959l-354.514199 354.503966c-3.428076 3.428076-5.310959 7.971555-5.310959 12.811794s1.882883 9.373485 5.310959 12.801561l463.782835 463.782835c7.081279 7.081279 23.976064 7.674796 40.666188 7.674796 2.148943 0 4.308119-0.010233 6.487761-0.020466 2.169409-0.010233 4.349051-0.020466 6.54916-0.020466 0 0 300.360835 0.040932 303.533085 0.040932 16.84362 0 30.54569-13.70207 30.54569-30.54569 0-3.172249-0.040932-303.553551-0.040932-303.553551C938.1354 478.215802 938.145633 475.964528 938.155866 473.723487zM859.83201 675.877627c-10.478655-4.246721-22.410406 0.808412-26.657126 11.276834-2.046612 5.0449-5.055133 9.578146-8.953929 13.46671-7.705496 7.705496-17.938558 11.941983-28.836769 11.941983-10.877745 0-21.110807-4.236488-28.795836-11.93175-15.891945-15.891945-15.881712-41.750893 0.010233-57.642838 15.871479-15.881712 41.730427-15.881712 57.622372 0 7.992021 7.992021 20.957311 7.992021 28.939099-0.010233 7.992021-7.992021 7.992021-20.957311-0.010233-28.939099-15.922644-15.912411-36.839023-23.873734-57.745169-23.873734-20.926612 0-41.832757 7.961322-57.755402 23.873734-31.845289 31.855522-31.855522 83.675748-0.020466 115.53127 15.421224 15.431457 35.938514 23.924899 57.755402 23.924899 21.827121 0 42.34441-8.493441 57.775868-23.924899 7.78736-7.78736 13.824867-16.884552 17.938558-27.03575C875.345332 692.066331 870.300432 680.124348 859.83201 675.877627z"  horiz-adv-x="1024" />

    
    <glyph glyph-name="tag" unicode="&#59520;" d="M919.411145 896 633.478528 896c-52.41728 0-125.636578-30.315136-162.706028-67.384586L27.810015 385.652929c-37.06945-37.06945-37.06945-97.731432 0-134.800882l341.77462-341.77462c37.06945-37.06945 97.731432-37.06945 134.800882 0l442.930774 442.930774C984.417451 389.077652 1014.732587 462.29695 1014.732587 514.745941L1014.732587 800.678558C1014.732587 853.095838 971.828425 896 919.411145 896zM792.759834 578.896066c-52.544122 0-95.13118 42.587058-95.13118 95.13118s42.587058 95.13118 95.13118 95.13118 95.13118-42.587058 95.13118-95.13118S845.303956 578.896066 792.759834 578.896066z"  horiz-adv-x="1024" />

    
    <glyph glyph-name="send" unicode="&#59558;" d="M896 739.2v3.2c0 3.2-3.2 6.4-3.2 9.6 0 0 0 3.2-3.2 3.2 0 3.2-3.2 3.2-3.2 6.4h-3.2s-3.2 0-3.2 3.2h-3.2-3.2-3.2C867.2 768 864 768 864 768h-3.2-3.2c-3.2 0-3.2 0-6.4-3.2h-3.2l-704-352c-12.8-6.4-19.2-19.2-16-32 3.2-12.8 12.8-25.6 25.6-25.6l192-32h6.4c6.4 0 12.8 3.2 19.2 6.4l278.4 208-195.2-227.2c-3.2-3.2-3.2-6.4-6.4-9.6v-265.6c0-16 9.6-28.8 25.6-32h6.4c12.8 0 22.4 6.4 28.8 16l80 144 192-153.6c6.4-3.2 12.8-6.4 19.2-6.4 3.2 0 9.6 0 12.8 3.2 9.6 3.2 19.2 16 19.2 25.6l64 704v3.2"  horiz-adv-x="1024" />

    
    <glyph glyph-name="read" unicode="&#58955;" d="M293.613968 694.581304c-72.126381 0-141.698539-16.541632-207.013659-49.016748-7.05452-3.52726-11.433187-10.581779-11.433187-18.487706v-527.264521c0-11.433187 9.243853-20.67704 20.67704-20.67704h1.702815c2.067704 0 4.013778 0.243259 5.959853 0.851408 60.449935 18.001188 125.035277 27.123411 191.809953 27.123411 66.288158 0 130.265352-9.000594 190.228769-26.758522l5.473334-1.581186V650.186483c-62.517639 29.434375-128.805796 44.394821-197.404918 44.394821zM937.399691 645.564556c-65.315121 32.475116-134.887279 49.016748-207.013659 49.016748-68.599121 0-134.887279-14.960447-197.404918-44.394821v-571.416083l5.473334 1.581186c60.085046 17.757928 124.06224 26.758522 190.228769 26.758522 66.896306 0 131.360019-9.122224 191.809953-27.123411 1.946074-0.608148 3.892149-0.851408 5.959853-0.851408h1.702815c11.433187 0 20.67704 9.243853 20.67704 20.67704V627.07685c0 7.784297-4.378667 14.960447-11.433187 18.487706z"  horiz-adv-x="1024" />

    
    <glyph glyph-name="calendar-2" unicode="&#59047;" d="M832-128H192c-106.048 0-192 86.016-192 192V704C0 787.456 53.632 857.792 128 884.224V800a96 96 0 1 1 192 0V896h384v-96a96 96 0 1 1 192 0V884.224C970.368 857.792 1024 787.456 1024 704v-640c0-105.984-85.952-192-192-192z m64 704H128v-512c0-35.392 28.608-64 64-64h640c35.392 0 64 28.608 64 64V576zM640 256h128v-128h-128v128z m0 192h128v-128h-128v128z m-192-192h128v-128h-128v128z m0 192h128v-128h-128v128z m-192-192h128v-128h-128v128z m0 192h128v-128h-128v128zM800 768A32 32 0 0 0 768 800V896h64v-96A32 32 0 0 0 800 768z m-576 0A32 32 0 0 0 192 800V896h64v-96A32 32 0 0 0 224 768z"  horiz-adv-x="1024" />

    
    <glyph glyph-name="comment" unicode="&#58916;" d="M847.800487 814.380074L175.537434 814.380074c-61.883419 0-112.049982-53.165874-112.049982-118.745475l0-445.234387c0-65.579601 51.299363-126.017088 114.594945-126.017088l170.742732 0c29.764907-32.380478 152.938228-162.667823 152.938228-162.667823 5.476735-5.807263 14.334473-5.807263 19.808138 0 0 0 90.184999 104.464213 148.947334 162.667823l174.736697 0c63.294558 0 114.594945 60.454884 114.594945 126.017088L959.850469 695.6346C959.850469 761.214201 909.68493 814.380074 847.800487 814.380074zM287.587416 398.806217c-30.950919 0-56.024991 26.574239-56.024991 59.373249 0 32.797987 25.073048 59.372226 56.024991 59.372226 30.933523 0 56.006572-26.574239 56.006572-59.372226C343.593987 425.379433 318.520939 398.806217 287.587416 398.806217zM511.667937 398.806217c-30.931476 0-56.023968 26.574239-56.023968 59.373249 0 32.797987 25.092491 59.372226 56.023968 59.372226 30.933523 0 56.024991-26.574239 56.024991-59.372226C567.692928 425.379433 542.60146 398.806217 511.667937 398.806217zM735.768925 398.806217c-30.950919 0-56.024991 26.574239-56.024991 59.373249 0 32.797987 25.074072 59.372226 56.024991 59.372226 30.9325 0 56.024991-26.574239 56.024991-59.372226C791.793916 425.379433 766.700401 398.806217 735.768925 398.806217z"  horiz-adv-x="1024" />

    
    <glyph glyph-name="calendar" unicode="&#58966;" d="M974.956 655.575a92.093 92.093 0 0 1-69.243 94.863 607.534 607.534 0 0 1-81.7 4.158v-58.163a78.244 78.244 0 0 0-106.634-69.238 80.343 80.343 0 0 0-49.163 75.479v52.613H355.241v-38.083c0.701-9.216 0.701-18.483 0-27.704-4.716-42.757-43.07-73.687-85.857-69.232-40.684 5.324-70.656 40.698-69.243 81.704V753.9h-69.233a47.053 47.053 0 0 1-12.467 0 94.853 94.853 0 0 1-69.243-93.476v-637.712a94.188 94.188 0 0 1 23.552-70.318 94.188 94.188 0 0 1 67.154-31.462h737.418a94.874 94.874 0 0 1 97.628 101.094V655.575z m-60.928-216.028v-383.59a59.576 59.576 0 0 0-6.237-26.317 28.39 28.39 0 0 0-27.003-13.85H142.674a32.553 32.553 0 0 0-36.004 37.386V497.014h806.656l0.702-57.467z m0 0M277.693 657.654a47.043 47.043 0 0 1 33.147 15.012 47.048 47.048 0 0 1 12.555 34.15V799.601a49.193 49.193 0 0 1-9.001 33.93 44.319 44.319 0 0 1-50.55 11.766A46.387 46.387 0 0 1 231.3 800.292v-94.172a47.78 47.78 0 0 1 46.392-48.466z m465.306 0a47.063 47.063 0 0 1 33.147 15.012 47.043 47.043 0 0 1 12.549 34.15V799.601a49.188 49.188 0 0 1-12.462 33.93 44.319 44.319 0 0 1-50.55 11.766 46.387 46.387 0 0 1-29.081-44.314v-94.167a47.826 47.826 0 0 1 13.004-34.202A47.831 47.831 0 0 1 743 657.654z m-14.54-481.92h121.86v-94.172H728.46v94.172z m-186.266 0h121.866v-94.172H542.193v94.172z m-186.256-94.167h122.558v95.56H355.937v-95.56z m-186.255 94.167h121.866v-94.172H169.682v94.172z m558.776 128.798H850.32v-94.172H728.46v94.172z m-186.265-0.696h121.866v-94.172H542.193v94.172z m-186.256 0h121.861v-94.172h-121.86v94.172z m-63.703 0H170.368v-94.172h121.866v94.172z m435.533 128.087h121.866v-94.162H727.767v94.162z m-185.574 0h121.866v-94.162H542.193v94.162z m-63.698 0H355.937v-94.162h122.558v94.162z m0 0"  horiz-adv-x="1024" />

    
    <glyph glyph-name="view" unicode="&#58973;" d="M984.32 422.08C884.48 623.68 723.52 747.84 512 749.12S139.52 623.68 39.68 422.08a97.6 97.6 0 0 1 0-76.48C139.52 144.32 300.48 20.16 512 18.88s373.76 125.44 473.6 327.04a96 96 0 0 1-1.28 76.16zM512 155.52A228.48 228.48 0 1 0 740.16 384 228.16 228.16 0 0 0 512 155.52zM512 480a96 96 0 1 1 96-96 96 96 0 0 1-96 96z"  horiz-adv-x="1024" />

    
    <glyph glyph-name="paypal" unicode="&#59098;" d="M941.142857 526.857143q10.285714-48-2.285714-116.571429-49.714286-253.714286-322.857143-253.714285h-25.142857q-14.285714 0-25.142857-9.428572t-13.714286-24.285714l-2.285714-10.857143-31.428572-197.714286-1.142857-8.571428q-2.857143-14.857143-14-24.285715T477.714286-128H334.285714q-12 0-18.857143 8.571429t-5.142857 20.571428q5.142857 32 15.142857 96t15.142858 96 15.428571 95.714286 15.428571 95.714286q2.857143 21.142857 24.571429 21.142857h74.857143q76-1.142857 134.857143 12 100 22.285714 164 82.285714 58.285714 54.285714 88.571428 140.571429 13.714286 40 20 76 0.571429 3.428571 1.428572 4.285714t2 0.571428 3.428571-2q45.142857-33.714286 56-92.571428z m-98.285714 161.142857q0-61.142857-26.285714-134.857143-45.714286-133.142857-172.571429-180-64.571429-22.857143-144-24 0-0.571429-51.428571-0.571428l-51.428572 0.571428q-57.142857 0-67.428571-54.857143-1.142857-4.571429-48.571429-302.857143-0.571429-5.714286-6.857143-5.714285H105.714286q-12.571429 0-20.857143 9.428571T78.285714 17.14285700000005L210.857143 857.714286q2.857143 16.571429 15.714286 27.428571T256 896h341.714286q19.428571 0 55.714285-7.428571T717.142857 870.285714q61.142857-23.428571 93.428572-70.285714t32.285714-112z"  horiz-adv-x="1024" />

    
    <glyph glyph-name="qq" unicode="&#59206;" d="M869.485714 268.342857c-18.285714 58.742857-39.314286 108.114286-71.657143 188.914286C802.857143 669.485714 714.628571 841.142857 511.428571 841.142857 305.942857 841.142857 219.657143 666.057143 225.142857 457.257143c-32.457143-80.914286-53.371429-129.942857-71.657143-188.914286-38.857143-125.142857-26.285714-176.914286-16.685714-178.057143 20.571429-2.514286 80.114286 94.171429 80.114286 94.171429 0-56 28.8-129.028571 91.2-181.714286-30.171429-9.257143-97.942857-34.171429-81.828572-61.485714 13.028571-22.057143 224.228571-14.057143 285.142857-7.2 60.914286-6.857143 272.114286-14.857143 285.142858 7.2 16.114286 27.2-51.771429 52.228571-81.828572 61.485714 62.4 52.8 91.2 125.828571 91.2 181.714286 0 0 59.542857-96.685714 80.114286-94.171429 9.714286 1.257143 22.285714 53.028571-16.571429 178.057143z"  horiz-adv-x="1024" />

    
    <glyph glyph-name="weibo" unicode="&#58977;" d="M456.991736 338.66351799999995c-107.598583 0-194.644628-74.956316-194.644629-166.838252s87.046045-166.838253 194.644629-166.838253c107.598583 0 194.644628 74.956316 194.644628 166.838253s-87.046045 166.838253-194.644628 166.838252zM391.707202 73.89846499999999c-36.269185 0-66.493506 27.806375-66.493507 62.866588s29.015348 62.866588 66.493507 62.866588c36.269185 0 66.493506-27.806375 66.493506-62.866588S427.976387 73.89846499999999 391.707202 73.89846499999999z m93.090909 91.881936c-14.507674 0-26.597403 12.089728-26.597403 26.597403s12.089728 26.597403 26.597403 26.597403 26.597403-12.089728 26.597403-26.597403-12.089728-26.597403-26.597403-26.597403zM239.376623 614.3093269999999C97.9268 501.874852-18.134593 295.140496 30.224321 234.69185400000003c32.642267-41.105077 59.239669 19.343566 124.524203 89.46399 30.224321 32.642267 77.374262 54.403778 122.106258 90.672964 20.552538 16.92562 197.062574 35.060213 230.913813 35.060212 97.9268 99.135773 114.85242 207.943329 74.956316 258.720189-48.358914 59.239669-201.898465 16.92562-343.348288-94.299882zM808.802834 335.0366C906.729634 434.172373 911.565525 518.800472 870.460449 569.5773320000001c-47.149941 60.448642-211.570248 32.642267-351.811098-78.583235M605.695396 542.9799290000001c-14.507674-8.46281-25.38843-12.089728-29.015349-7.253837-1.208973 2.417946-1.208973 6.044864 1.208973 9.671783-16.92562 1.208973-33.85124 1.208973-50.776859 1.208973C235.749705 546.606848 0 395.485242 0 209.30342399999995s235.749705-337.303424 527.112161-337.303424 527.112161 151.121606 527.11216 337.303424c0 170.465171-194.644628 309.497048-448.528925 333.676505zM481.171192-63.92443900000001C275.645809-63.92443900000001 108.807556 48.510035000000016 108.807556 187.54191300000002s166.838253 251.466352 372.363636 251.466351 372.363636-112.434475 372.363637-251.466351-166.838253-251.466352-372.363637-251.466352zM1021.582054 472.859504c-3.626919 0-6.044864 0-9.671782 1.208973-18.134593 4.835891-29.015348 24.179457-22.970485 42.31405 2.417946 7.253837 3.626919 16.92562 3.626919 29.015348 0 65.284534-53.194805 119.688312-119.688312 119.688312-19.343566 0-33.85124 15.716647-33.851239 33.851239s15.716647 33.85124 33.851239 33.85124c103.971665 0 187.390791-84.628099 187.390791-187.390791 0-18.134593-2.417946-33.85124-6.044864-48.358914-4.835891-14.507674-18.134593-24.179457-32.642267-24.179457zM1146.106257 422.082645c-2.417946 0-6.044864 0-8.46281 1.208972-20.552538 4.835891-32.642267 25.38843-27.806375 45.940969 6.044864 24.179457 8.46281 47.149941 8.46281 71.329397C1118.299882 694.101535 991.357733 821.043684 836.609209 821.043684c-20.552538 0-37.478158 16.92562-37.478158 37.478158S816.056671 896 836.609209 896c197.062574 0 356.646989-159.584416 356.646989-356.646989 0-29.015348-3.626919-59.239669-10.880755-88.255018-3.626919-18.134593-19.343566-29.015348-36.269186-29.015348z"  horiz-adv-x="1193" />

    
    <glyph glyph-name="wechat" unicode="&#58976;" d="M558.563164 215.10688700000003c0-165.030026 162.721913-298.900536 362.373623-298.900536 48.470357 0 95.786658 8.078393 137.332679 21.927066 11.540561-5.770281 94.632602-77.32176 113.0975-64.627143 12.694617 10.386505-30.005459 87.708265-33.467628 101.556939 88.862322 54.240638 146.565128 140.794847 146.565128 238.889618 0 165.030026-162.721913 298.900536-362.373623 298.900536S558.563164 380.13691300000005 558.563164 215.10688700000003z m438.541327 106.173163c0 28.851403 23.081122 51.932526 51.932526 51.932526s51.932526-23.081122 51.932525-51.932526-23.081122-51.932526-51.932525-51.932525c-28.851403-1.154056-51.932526 23.081122-51.932526 51.932525z m-255.046403 0c0 28.851403 23.081122 51.932526 51.932525 51.932526s51.932526-23.081122 51.932526-51.932526-23.081122-51.932526-51.932526-51.932525c-28.851403-1.154056-53.086582 23.081122-51.932525 51.932525zM526.249593 217.41499899999997c0 180.032755 177.724643 325.443827 395.84125 325.443827 11.540561 0 23.081122 0 33.467628-1.154056C931.323292 741.356479 727.055358 896 478.933291 896 214.654439 896 0 719.4294130000001 0 501.312806c0-129.254286 76.167704-244.659898 192.727373-316.211378-4.616224-17.310842-60.010918-120.021837-43.854133-133.870511 24.235179-16.156786 133.87051 78.475816 148.87324 85.400153 55.394694-19.618954 116.559669-30.005459 181.186811-30.005459 23.081122 0 46.162245 1.154056 69.243368 4.616225-15.00273 33.467628-21.927066 69.243367-21.927066 106.173163zM646.271429 710.196964c38.083852 0 69.243367-31.159515 69.243368-69.243367 1.154056-38.083852-30.005459-69.243367-69.243368-69.243368-38.083852 0-69.243367 31.159515-69.243367 69.243368s31.159515 69.243367 69.243367 69.243367z m-335.830332-138.486735c-38.083852 0-69.243367 31.159515-69.243367 69.243368s31.159515 69.243367 69.243367 69.243367 69.243367-31.159515 69.243368-69.243367-31.159515-69.243367-69.243368-69.243368z"  horiz-adv-x="1284" />

    
    <glyph glyph-name="email" unicode="&#59122;" d="M490.338462 303.261538c11.815385-11.815385 29.538462-11.815385 41.353846 0l445.046154 413.538462c7.876923 15.753846 5.907692 41.353846-25.6 41.353846l-880.246154-1.969231c-23.630769 0-43.323077-21.661538-25.6-41.353846l445.046154-411.569231zM984.615385 555.323077c0 19.692308-23.630769 31.507692-39.384616 17.723077L596.676923 252.06153800000004c-23.630769-21.661538-53.169231-33.476923-84.676923-33.476923s-61.046154 11.815385-84.676923 31.507693L80.738462 573.046154c-15.753846 13.784615-39.384615 3.938462-39.384616-17.723077C39.384615 561.230769 39.384615 108.30769199999997 39.384615 108.30769199999997c0-43.323077 35.446154-78.769231 78.769231-78.76923h787.692308c43.323077 0 78.769231 35.446154 78.769231 78.76923V555.323077z"  horiz-adv-x="1024" />

    
    <glyph glyph-name="github" unicode="&#59145;" d="M512 883.36c-282.752 0-512-229.216-512-512 0-226.208 146.72-418.144 350.144-485.824 25.6-4.736 35.008 11.104 35.008 24.64 0 12.192-0.48 52.544-0.704 95.328-142.464-30.976-172.512 60.416-172.512 60.416-23.296 59.168-56.832 74.912-56.832 74.912-46.464 31.776 3.52 31.136 3.52 31.136 51.392-3.616 78.464-52.768 78.464-52.768 45.664-78.272 119.776-55.648 148.992-42.56 4.576 33.088 17.856 55.68 32.512 68.48-113.728 12.928-233.28 56.864-233.28 253.024 0 55.904 20 101.568 52.768 137.44-5.312 12.896-22.848 64.96 4.96 135.488 0 0 43.008 13.76 140.832-52.48 40.832 11.36 84.64 17.024 128.16 17.248 43.488-0.192 87.328-5.888 128.256-17.248 97.728 66.24 140.64 52.48 140.64 52.48 27.872-70.528 10.336-122.592 5.024-135.488 32.832-35.84 52.704-81.536 52.704-137.44 0-196.64-119.776-239.936-233.792-252.64 18.368-15.904 34.72-47.04 34.72-94.816 0-68.512-0.608-123.648-0.608-140.512 0-13.632 9.216-29.6 35.168-24.576 203.328 67.776 349.856 259.616 349.856 485.76 0 282.784-229.248 512-512 512z"  horiz-adv-x="1024" />

    


  </font>
</defs>
</svg>
